<?xml version="1.0" standalone="no"?>
<!DOCTYPE svg PUBLIC "-//W3C//DTD SVG 20010904//EN"
 "http://www.w3.org/TR/2001/REC-SVG-20010904/DTD/svg10.dtd">
<svg version="1.0" xmlns="http://www.w3.org/2000/svg"
 width="833.000000pt" height="68.000000pt" viewBox="0 0 833.000000 68.000000"
 preserveAspectRatio="xMidYMid meet">
<metadata>
Created by potrace 1.16, written by Peter Selinger 2001-2019
</metadata>
<g transform="translate(0.000000,68.000000) scale(0.100000,-0.100000)"
fill="#fff" stroke="none">
<path d="M0 340 l0 -340 4165 0 c3696 0 4165 2 4165 15 0 12 -17 15 -96 15
l-95 0 -24 55 -25 55 -164 0 -164 0 -22 -55 -22 -55 -95 0 c-82 0 -94 2 -89
16 3 8 68 148 143 310 l137 294 115 0 116 0 100 -218 c54 -119 118 -257 142
-307 l43 -90 0 323 0 322 -4165 0 -4165 0 0 -340z m1170 320 c159 -30 256
-128 275 -277 8 -59 -8 -150 -35 -204 -21 -40 -83 -100 -130 -124 -82 -42
-247 -56 -358 -30 -120 28 -186 76 -229 163 -24 50 -27 69 -28 152 0 84 3 102
28 152 41 84 113 137 222 164 62 15 185 17 255 4z m2311 -19 c76 -29 129 -92
129 -156 l0 -25 -95 0 c-90 0 -96 1 -104 23 -13 34 -34 47 -93 56 -92 15 -178
-11 -178 -54 0 -6 6 -19 13 -29 11 -14 46 -22 173 -37 245 -30 305 -69 305
-197 1 -99 -45 -157 -149 -189 -83 -26 -325 -25 -404 1 -88 29 -148 100 -148
176 l0 31 97 -3 c93 -3 97 -4 103 -27 9 -41 53 -65 125 -69 81 -5 131 4 156
29 24 24 24 41 2 68 -15 18 -42 25 -163 41 -184 26 -212 34 -255 71 -86 76
-66 221 39 276 58 31 136 43 266 39 97 -3 137 -8 181 -25z m-3301 -231 l0
-240 215 0 215 0 0 -70 0 -70 -300 0 -300 0 0 310 0 310 85 0 85 0 0 -240z
m1540 45 c0 -225 6 -251 64 -279 44 -21 163 -23 203 -4 14 7 36 26 47 41 19
26 21 44 24 233 l3 204 85 0 84 0 0 -208 c0 -222 -8 -272 -50 -332 -48 -67
-187 -107 -335 -97 -141 10 -225 51 -268 130 -21 39 -22 56 -25 275 l-3 232
85 0 86 0 0 -195z m810 -115 l0 -310 -90 0 -90 0 0 310 0 310 90 0 90 0 0
-310z m1786 9 c76 -165 141 -305 142 -310 2 -5 -38 -9 -90 -9 l-94 0 -27 55
-27 55 -160 0 -161 0 -25 -55 -25 -55 -95 0 -94 0 12 29 c7 17 72 156 143 310
l130 280 116 1 116 0 139 -301z m584 99 l155 -201 3 201 2 202 80 0 80 0 0
-310 0 -310 -99 0 -98 0 -159 205 -159 204 -3 -204 -2 -205 -85 0 -85 0 0 310
0 310 108 -1 107 0 155 -201z m1070 132 l0 -70 -120 0 -120 0 0 -240 0 -240
-90 0 -90 0 0 240 0 240 -120 0 -120 0 0 70 0 70 330 0 330 0 0 -70z m579
-235 c77 -167 141 -307 141 -310 0 -3 -42 -5 -94 -5 l-94 0 -23 55 -23 55
-163 0 -164 0 -24 -55 -25 -55 -95 0 -94 0 33 73 c65 141 238 512 247 530 8
15 25 17 123 17 l113 0 142 -305z m581 104 l155 -201 3 201 2 201 85 0 85 0 0
-310 0 -310 -103 0 -103 0 -160 206 -159 207 -3 -207 -2 -206 -85 0 -85 0 0
310 0 310 108 0 107 -1 155 -200z" fill="#fff"/>
<path d="M1005 521 c-100 -16 -150 -77 -150 -181 0 -83 24 -126 85 -158 38
-20 57 -23 127 -20 90 3 119 17 161 78 30 44 31 143 2 199 -31 62 -129 97
-225 82z" fill="#000a09"/>
<path d="M4051 483 c-14 -27 -91 -203 -91 -208 0 -3 45 -5 101 -5 117 0 112
-14 44 136 -37 83 -44 94 -54 77z" fill="#000a09"/>
<path d="M6287 493 c-7 -11 -97 -215 -97 -219 0 -2 45 -4 100 -4 55 0 100 4
100 8 0 7 -89 212 -95 220 -2 2 -5 0 -8 -5z" fill="#000a09"/>
<path d="M7873 385 l-51 -115 104 0 c57 0 104 2 104 4 0 8 -92 211 -99 218 -4
5 -30 -44 -58 -107z" fill="#000a09"/>
</g>
</svg>
